<?xml version="1.0" encoding="utf-8"?>
<!-- Generator: Adobe Illustrator 24.3.0, SVG Export Plug-In . SVG Version: 6.00 Build 0)  -->
<svg version="1.1" id="Layer_1" xmlns="http://www.w3.org/2000/svg" xmlns:xlink="http://www.w3.org/1999/xlink" x="0px" y="0px"
	 viewBox="0 0 612 792" style="enable-background:new 0 0 612 792;" xml:space="preserve">
<style type="text/css">
	.st0{fill:#22BA85;}
	.st1{fill:#B8E9D8;}
</style>
<g>
	<path class="st0" d="M561.91,196.35c-2.38,7.14-3.9,14.52-7.94,21.14c-9.12,14.96-22.45,23.46-39.37,26.69
		c-16.26,3.1-30.49-2.17-43.42-11.49c-2.32-1.67-3.21-1.8-5.14,0.13c-28.22,28.27-56.48,56.49-84.82,84.63
		c-2.13,2.11-2.05,3.47-0.44,5.84c9.38,13.83,14.22,29,13.36,45.88c-0.72,14.1-5.02,26.93-13.06,38.48
		c-1.86,2.68-1.82,4.19,0.58,6.57c21.78,21.53,43.44,43.17,65.01,64.9c2.4,2.42,4.15,2.52,7.27,1.23
		c24.65-10.17,52.45,7.07,52,34.96c-0.32,19.49-17.71,36.22-37.53,36.16c-19.97-0.06-36.32-16.38-36.59-36.38
		c-0.08-5.92,0.7-11.59,3.76-16.75c1.21-2.05,0.98-3.43-0.76-5.15c-22.2-22.04-44.35-44.14-66.43-66.3
		c-2.09-2.09-3.51-2.03-5.91-0.44c-9.33,6.17-19.42,10.72-30.58,12.3c-3.5,0.5-2.76,2.64-2.77,4.63
		c-0.03,17.79-0.02,35.58-0.02,53.37c0,10.81,0.09,21.61-0.06,32.42c-0.04,3.29,0.66,4.72,4.37,5.61
		c22.45,5.38,39.61,25.22,41.81,48.63c2.85,30.33-18.42,53.09-41.27,59.14c-31.35,8.29-64.66-13.43-69.01-45.57
		c-3.98-29.42,13.14-54.96,41.99-62.33c3.03-0.77,3.99-2.02,3.98-5.06c-0.1-28.6-0.09-57.19-0.01-85.79
		c0.01-3.13-0.62-4.64-4.22-5.19c-10.68-1.63-20.42-5.91-29.19-12.17c-2.38-1.69-3.78-1.67-5.87,0.41
		c-38.11,38.14-76.28,76.23-114.49,114.27c-1.73,1.73-1.74,3.03-0.81,5.17c15.21,34.7-3.83,71.11-41,78.55
		c-29.02,5.81-58.74-14.86-64.22-44.68c-0.18-0.96-0.04-2.02-1.01-2.67c0-5.65,0-11.31,0-16.96c2.82-8.16,5.27-16.35,10.54-23.57
		c19.45-26.62,56.25-29.38,79.72-10.54c2.5,2.01,3.49,1.77,5.51-0.25c37.48-37.51,75-74.98,112.6-112.36
		c2.21-2.19,1.79-3.7,0.26-5.76c-7.7-10.41-12.05-22.08-12.93-35.01c-0.5-4.71-0.34-9.42-0.08-14.13
		c0.61-13.59,6.01-25.47,13.48-36.48c1.36-2.01,0.88-2.63-0.38-3.88c-22.51-22.43-45.02-44.85-67.45-67.36
		c-1.6-1.6-2.78-1.73-4.65-0.75c-12.8,6.64-25.51,5.34-37-2.4c-8.19-5.51-13.7-13.7-15.56-23.88c-3.61-19.76,8.28-39.13,27.9-43.18
		c15.1-3.12,28.54,0.77,38.19,13.17c8.47,10.87,10.85,23.3,5.19,36.35c-1.75,4.03-1.39,6.43,1.88,9.64
		c21.27,20.84,42.31,41.91,63.26,63.07c2.76,2.78,4.65,3.03,7.76,0.77c10.64-7.73,22.64-11.24,35.8-12.08
		c17.57-1.13,33.55,2.83,47.93,12.85c2.76,1.92,4.32,1.28,6.36-0.76c28.58-28.59,57.19-57.15,85.85-85.66
		c1.81-1.8,1.91-3.07,0.87-5.43c-10.5-23.68-5.35-47.64,13.15-65.37c7.34-7.03,16.5-10.98,26.43-13.09c0.8-0.17,1.67-0.09,2.17-0.93
		c5.66,0,11.33,0,16.99,0c11.49,0.93,21.35,5.64,29.79,13.27c9.47,8.56,16.21,18.74,17.66,31.79c0.11,0.96-0.25,2,0.53,2.83
		C561.91,186.38,561.91,191.37,561.91,196.35z"/>
	<path class="st1" d="M245.73,358.89c0.03,4.71,0.06,9.42,0.08,14.13C244.49,368.32,244.57,363.61,245.73,358.89z"/>
</g>
</svg>
