<svg width="26" height="26" viewBox="0 0 26 26" fill="none" xmlns="http://www.w3.org/2000/svg">
<circle cx="13" cy="13" r="13" fill="#22BB86"/>
<path d="M18.9088 16.9473C18.9088 17.2956 18.7956 17.6296 18.5941 17.8758C18.3926 18.1221 18.1194 18.2604 17.8344 18.2604H8.16499C7.88004 18.2604 7.60677 18.1221 7.40529 17.8758C7.2038 17.6296 7.09061 17.2956 7.09061 16.9473V9.72509C7.09061 9.37682 7.2038 9.04282 7.40529 8.79656C7.60677 8.55031 7.88004 8.41196 8.16499 8.41196H10.3137L11.3881 6.44226H14.6113L15.6856 8.41196H17.8344C18.1194 8.41196 18.3926 8.55031 18.5941 8.79656C18.7956 9.04282 18.9088 9.37682 18.9088 9.72509V16.9473Z" stroke="white" stroke-linecap="round" stroke-linejoin="round"/>
<path d="M12.9998 15.6343C14.1865 15.6343 15.1485 14.4585 15.1485 13.0081C15.1485 11.5577 14.1865 10.3818 12.9998 10.3818C11.813 10.3818 10.851 11.5577 10.851 13.0081C10.851 14.4585 11.813 15.6343 12.9998 15.6343Z" stroke="white" stroke-linecap="round" stroke-linejoin="round"/>
</svg>
