<?xml version="1.0" encoding="utf-8"?>
<!-- Generator: Adobe Illustrator 24.3.0, SVG Export Plug-In . SVG Version: 6.00 Build 0)  -->
<svg version="1.1" id="Layer_1" xmlns="http://www.w3.org/2000/svg" xmlns:xlink="http://www.w3.org/1999/xlink" x="0px" y="0px"
	 viewBox="0 0 612 792" style="enable-background:new 0 0 612 792;" xml:space="preserve">
<style type="text/css">
	.st0{fill:#22BA85;}
</style>
<g>
	<path class="st0" d="M46.57,433.76c1.81-10.25,4.1-20.38,8.88-29.7c18.01-35.09,46.5-54.2,86.18-55.21
		c22.43-0.57,44.88-0.03,67.32-0.1c3-0.01,4.29,0.61,4.54,4.05c1.52,21.3,9.34,40,23.93,55.73c4.06,4.38,4.17,4.57-1.55,6.57
		c-19.06,6.66-35.03,17.96-48.14,33.04c-14.4,16.56-23.13,35.92-26.29,57.76c-1.7,11.75-0.84,23.53-0.96,35.3
		c-0.04,3.36-0.73,4.71-4.41,4.49c-17.46-1.03-34.67-3.7-51.84-6.89c-18.81-3.49-37.21-8.56-55.47-14.15
		c-0.77-0.23-1.45-0.73-2.18-1.1C46.57,493.62,46.57,463.69,46.57,433.76z"/>
	<path class="st0" d="M178.15,552.86c0.66-13.12-1.07-29.26,1.06-45.33c5.64-42.45,43.42-78.25,86.27-80.75
		c26.71-1.56,53.52-1.57,80.22-0.01c42.04,2.46,78.74,36.01,85.99,77.53c1.03,5.91,1.75,11.84,1.76,17.82
		c0.05,24.43-0.04,48.87,0.11,73.3c0.02,3.15-1.06,4.71-3.81,6.03c-19.34,9.27-39.87,14.52-60.92,17.85
		c-63.68,10.1-125.71,1.87-186.78-17.02c-3.07-0.95-4.03-2.37-3.99-5.57C178.26,583.1,178.15,569.46,178.15,552.86z"/>
	<path class="st0" d="M370.14,413.04c13.39-13.6,22.2-28.79,26.01-46.65c0.97-4.53,1.48-9.17,1.97-13.79
		c0.26-2.48,0.8-3.78,3.78-3.76c21.94,0.16,43.91-0.43,65.83,0.29c44.02,1.44,83.89,39.02,88.68,82.83
		c1.98,18.07,0.57,36.2,0.9,54.31c0.2,10.8-0.08,21.61,0.11,32.42c0.05,2.78-0.92,4.05-3.32,5.22
		c-20.22,9.82-41.79,14.97-63.81,18.52c-11.48,1.85-23.06,2.84-34.69,3.49c-3.39,0.19-4.25-0.55-4.24-3.88
		c0.04-12.62,0.76-25.28-1.56-37.8c-8.11-43.66-33.19-73.23-74.38-89.36C373.93,414.3,372.39,413.82,370.14,413.04z"/>
	<path class="st0" d="M230.97,345.99c0.04-41.57,33.6-74.9,75.27-74.77c41.05,0.13,74.54,34.02,74.42,75.31
		c-0.12,41.21-33.72,74.45-75.2,74.38C264.08,420.84,230.93,387.51,230.97,345.99z"/>
	<path class="st0" d="M174.26,194.07c41.47,0,75.05,33.51,74.88,74.62c-0.01,2.9-0.8,4.84-3.07,6.77
		c-16.36,13.91-26.93,31.35-31.08,52.5c-0.64,3.25-2.17,5.23-5.08,6.68c-26.98,13.48-53.52,12.72-78.25-4.54
		c-24.68-17.23-35.35-41.78-31.32-71.78C105.35,220.99,136.74,194.07,174.26,194.07z"/>
	<path class="st0" d="M429.63,194.06c39.12-0.02,71.69,29.89,74.73,68.62c3.06,38.9-23.93,73.51-62.56,80.03
		c-13.73,2.32-27.1,0.66-40.07-4.51c-2.56-1.02-3.75-2.24-4.22-5.22c-4.15-26.43-17.19-47.48-39.14-62.82
		c-2.89-2.02-3.7-4.04-3.43-7.35C358.1,224,390.55,194.08,429.63,194.06z"/>
</g>
</svg>
