<svg width="22" height="20" viewBox="0 0 22 20" fill="none" xmlns="http://www.w3.org/2000/svg">
<path d="M12.9273 11.5569C12.6776 11.7961 12.3765 11.988 12.042 12.1212C11.7074 12.2543 11.3463 12.3258 10.9801 12.3316C10.6139 12.3374 10.2501 12.2772 9.91055 12.1547C9.57096 12.0322 9.26247 11.8499 9.0035 11.6187C8.74452 11.3874 8.54036 11.112 8.40319 10.8087C8.26602 10.5055 8.19866 10.1807 8.20512 9.85366C8.21158 9.52666 8.29174 9.20418 8.4408 8.90544C8.58986 8.6067 8.80478 8.33784 9.07273 8.11488M16.4 14.6579C14.846 15.7156 12.9537 16.3016 11 16.3302C4.63636 16.3302 1 9.83587 1 9.83587C2.13081 7.95406 3.69921 6.30996 5.6 5.01386L16.4 14.6579ZM9.09091 3.5364C9.71667 3.40561 10.3573 3.34022 11 3.34157C17.3636 3.34157 21 9.83587 21 9.83587C20.4482 10.7577 19.7901 11.6256 19.0364 12.4255L9.09091 3.5364Z" stroke="#22BB86" stroke-width="1.5" stroke-linecap="round" stroke-linejoin="round"/>
<path d="M1 0.90625L21 18.7656" stroke="#22BB86" stroke-width="1.5" stroke-linecap="round" stroke-linejoin="round"/>
</svg>
