<?xml version="1.0" encoding="utf-8"?>
<!-- Generator: Adobe Illustrator 24.3.0, SVG Export Plug-In . SVG Version: 6.00 Build 0)  -->
<svg version="1.1" id="Layer_1" xmlns="http://www.w3.org/2000/svg" xmlns:xlink="http://www.w3.org/1999/xlink" x="0px" y="0px"
	 viewBox="0 0 612 792" style="enable-background:new 0 0 612 792;" xml:space="preserve">
<style type="text/css">
	.st0{fill:#22BA85;}
	.st1{fill:#75D4B3;}
	.st2{fill:#FEFEFE;}
</style>
<g>
	<path class="st0" d="M580.58,388.87c0,13.3,0,26.6,0,39.91c-1.05,7.35-0.98,14.79-1.64,22.17c-1.73,19.3-7.67,37.5-14.98,55.24
		c-9.48,23.01-21.7,44.53-37.59,63.78c-22.12,26.79-47.83,49.3-78.66,65.76c-23.35,12.47-47.9,21.38-73.87,26.45
		c-7.02,1.37-14.13,1.49-21.2,1.86c-23.51,1.25-47.06,1.34-70.47-1.22c-20.99-2.3-40.87-9.13-60.09-17.6
		c-20.91-9.21-40.6-20.65-58.23-35.33c-26.69-22.22-49.23-47.89-65.68-78.73c-12.38-23.21-21.29-47.57-26.26-73.4
		c-1.38-7.16-1.64-14.42-2-21.64c-1.15-23.56-1.36-47.16,1.32-70.62c2.41-21.13,9.37-41.11,17.82-60.54
		c10.28-23.65,23.99-45.22,40.94-64.61c20.17-23.07,43.46-42.4,70.4-57.25c22.29-12.29,45.8-21.24,70.7-26.47
		c9.97-2.09,20.18-1.98,30.29-2.73c1.29-0.09,2.66,0.42,3.85-0.49c9.64,0,19.29,0,28.93,0c3.13,1.11,6.36,0.21,9.53,0.5
		c36.88-0.77,70.57,10.39,102.78,27.32c22.39,11.77,42.5,26.71,60.3,44.52c20.67,20.67,37.71,44.06,50.44,70.59
		c9.04,18.84,15.98,38.31,20.22,58.73c2.04,9.85,1.97,19.95,2.68,29.95C580.19,386.31,579.67,387.68,580.58,388.87z"/>
	<path class="st1" d="M344.13,153.42c0.05,0.28,0.1,0.56,0.17,0.84c-3.44,0.41-6.85,0.49-10.14-0.84
		C337.48,153.42,340.81,153.42,344.13,153.42z"/>
	<path class="st2" d="M382.56,531.61c-1.38,5.82-2.58,10.79-3.72,15.78c-0.34,1.48-1.32,2.25-2.63,2.71
		c-13.73,4.88-26.89,11.52-41.43,13.91c-10.9,1.79-21.87,1.81-32.68-0.72c-23.46-5.48-35.45-24.01-32.45-49
		c2.53-21.08,9.82-40.92,15.18-61.26c3.64-13.78,8.42-27.32,9.81-41.6c2.15-22.1-5.5-25.59-22.34-25.57
		c-6.08,0.01-11.77,1.74-17.5,3.47c-1.84,0.55-3.55,1.83-6.17,1.28c1.22-5,2.5-9.91,3.58-14.86c0.38-1.74,1.39-2.42,2.89-2.99
		c15.17-5.82,30.18-12.19,46.47-14.3c10.13-1.32,20.23-0.98,30.11,1.93c20.29,5.96,30.77,22.86,29.13,44.64
		c-1.57,20.97-8.97,40.41-14.16,60.44c-3.91,15.08-8.79,29.89-11.01,45.42c-2.63,18.34,3,25.57,21.37,26.2
		C365.63,537.38,373.66,534.58,382.56,531.61z"/>
	<path class="st2" d="M348.47,251.7c21.79,0.37,38.84,16.96,38.44,37.39c-0.36,18.49-15.44,33.59-35.78,35.43
		c-23.91,2.16-45.7-17.33-42.04-41.7C311.73,265.33,328.97,251.37,348.47,251.7z"/>
</g>
</svg>
