<?xml version="1.0" encoding="utf-8"?>
<!-- Generator: Adobe Illustrator 24.3.0, SVG Export Plug-In . SVG Version: 6.00 Build 0)  -->
<svg version="1.1" id="Layer_1" xmlns="http://www.w3.org/2000/svg" xmlns:xlink="http://www.w3.org/1999/xlink" x="0px" y="0px"
	 viewBox="0 0 612 792" style="enable-background:new 0 0 612 792;" xml:space="preserve">
<style type="text/css">
	.st0{fill:#22BA85;}
</style>
<g>
	<path class="st0" d="M50.1,319.17c0-8.98,0-17.96,0-26.94c1-4.37,0.94-8.83,1.18-13.26c0.93-16.94,7.39-32.16,15.26-46.72
		c15.52-28.72,37.77-51.29,67.13-65.56c57.31-27.85,112.75-23.3,165.54,12.39c6.74,4.56,6.92,4.69,13.53,0
		c31.01-22.03,65.65-32.65,103.49-29.65c56.03,4.44,98.65,31.42,127.4,79.81c11.38,19.15,18.06,39.67,17.77,62.15
		c-0.01,0.67,0.01,1.32,0.5,1.85c0,9.98,0,19.95,0,29.93c-0.96,4.03-0.93,8.16-1.22,12.25c-1.49,20.99-10.34,39.26-21.01,56.82
		c-5.72,9.41-12.8,17.75-20.62,25.55c-57.17,56.95-114.37,113.86-171.3,171.04c-14.83,14.9-32.18,20.57-52.69,17.03
		c-10.23-1.77-19.47-5.96-26.87-13.33c-60.47-60.23-121.14-120.27-181.09-181.01c-17.95-18.18-28.78-41.04-34.62-65.92
		c-1.6-6.8-1.7-14.01-1.91-21.08C50.51,322.74,51.12,320.87,50.1,319.17z"/>
</g>
</svg>
