<svg width="18" height="18" viewBox="0 0 18 18" fill="none" xmlns="http://www.w3.org/2000/svg">
<path d="M8.42857 2.15613H2.65079C2.21298 2.15613 1.79309 2.33005 1.48351 2.63963C1.17392 2.94922 1 3.3691 1 3.80692V15.3625C1 15.8003 1.17392 16.2202 1.48351 16.5297C1.79309 16.8393 2.21298 17.0133 2.65079 17.0133H14.2064C14.6442 17.0133 15.0641 16.8393 15.3736 16.5297C15.6832 16.2202 15.8571 15.8003 15.8571 15.3625V9.58469" stroke="white" stroke-width="1.5" stroke-linecap="round" stroke-linejoin="round"/>
<path d="M14.0692 1.51615C14.3912 1.19418 14.8278 1.01331 15.2832 1.01331C15.7385 1.01331 16.1752 1.19418 16.4971 1.51615C16.8191 1.83811 17 2.27479 17 2.73012C17 3.18544 16.8191 3.62212 16.4971 3.94408L8.80866 11.6325L5.57141 12.4419L6.38072 9.20461L14.0692 1.51615Z" stroke="white" stroke-width="1.5" stroke-linecap="round" stroke-linejoin="round"/>
</svg>
