<?xml version="1.0" encoding="utf-8"?>
<!-- Generator: Adobe Illustrator 24.3.0, SVG Export Plug-In . SVG Version: 6.00 Build 0)  -->
<svg version="1.1" id="Layer_1" xmlns="http://www.w3.org/2000/svg" xmlns:xlink="http://www.w3.org/1999/xlink" x="0px" y="0px"
	 viewBox="0 0 612 792" style="enable-background:new 0 0 612 792;" xml:space="preserve">
<style type="text/css">
	.st0{fill:#22BA85;}
	.st1{fill:#62CEA9;}
</style>
<g>
	<path class="st0" d="M519.05,417.78"/>
</g>
<g>
	<path class="st0" d="M50.92,542.74c1.45-33.18,6.79-65.54,21.33-95.76c12.78-26.57,31.63-46.72,60.82-55.41
		c9.16-2.73,18.55-3.83,28.05-4.21c5.92-0.24,11.07,2.09,15.92,5.11c9.89,6.15,19.42,12.95,29.61,18.54
		c38.39,21.06,76.91,20.69,115.12-0.63c6.96-3.89,13.95-7.98,20.14-12.95c13.52-10.84,28.34-11.34,44.36-7.88
		c33,7.13,54.26,28.02,68.65,57.3c11.61,23.63,16.75,49,19.88,74.85c1.89,15.56,2.35,31.21,2.07,46.88
		c-0.78,44.21-32.1,78.1-76.14,82.36c-1.3,0.13-2.7-0.07-3.78,0.96c-89.3,0-178.6,0-267.9,0c-2.53-1.15-5.22-0.38-7.82-0.62
		c-31.5-2.92-60.28-26.93-69.02-58.71c-1.59-5.79-0.93-11.82-2.13-17.64c0-6.66,0-13.33,0-19.99
		C51.42,550.94,49.9,546.75,50.92,542.74z"/>
	<path class="st0" d="M274.01,140.1c8.51,2.06,17.33,2.78,25.58,5.92c45.39,17.32,74.42,48.96,82.44,97.41
		c10.4,62.83-27.56,122.24-88.33,138.98c-75.02,20.66-144.82-30.38-155.53-100.03c-9.98-64.9,32.7-126.65,96.71-140.06
		c4.03-0.84,8.09-1.49,12.14-2.23C256.02,140.1,265.01,140.1,274.01,140.1z"/>
	<path class="st1" d="M50.92,542.74c0.02,4.09,1.03,8.24-0.82,12.2c0-4,0-8,0-12C50.34,542.77,50.62,542.7,50.92,542.74z"/>
</g>
</svg>
