<svg width="163" height="94" viewBox="0 0 163 94" fill="none" xmlns="http://www.w3.org/2000/svg">
<rect y="36" width="50" height="50" rx="10" transform="rotate(-30 0 36)" fill="#22BB86"/>
<path d="M30.0247 30.494C29.8335 30.4593 29.6404 30.5154 29.5006 30.6461L17.3841 42.1592C17.1707 42.3616 17.1294 42.6936 17.2848 42.9574L28.3699 62.1573C28.5309 62.4359 28.8626 62.5603 29.151 62.4503L44.5279 56.5842C44.8507 56.461 45.005 56.09 44.8724 55.7556C44.8602 55.7249 44.8458 55.695 44.8293 55.6664L30.4838 30.8193C30.3849 30.6468 30.2159 30.5271 30.0247 30.494Z" fill="white"/>
<path d="M54.1354 48.0345L43.3102 54.2844C43.0113 54.457 42.623 54.344 42.4429 54.0322C42.2628 53.7203 42.3592 53.3275 42.6581 53.1549L52.9421 47.2175L41.857 28.0176L31.5731 33.9551C31.2742 34.1277 30.8858 34.0147 30.7058 33.7029C30.5257 33.391 30.6221 32.9983 30.921 32.8257L41.7462 26.5758C42.0451 26.4032 42.4334 26.5161 42.6135 26.828L54.3506 47.1573C54.5307 47.4692 54.4344 47.8619 54.1354 48.0345Z" fill="white"/>
<path d="M35.3812 52.0534C35.1453 52.1892 34.837 52.1332 34.6249 51.9163L29.3671 46.5228L31.409 53.773C31.4749 54.1555 31.2398 54.4912 30.8837 54.5228C30.7125 54.538 30.5357 54.4794 30.3923 54.36L23.4723 47.2602C23.2031 46.9986 23.1641 46.5755 23.385 46.3152C23.6059 46.055 24.0032 46.0562 24.2724 46.3179C24.2819 46.3271 24.2912 46.3366 24.3002 46.3464L29.5573 51.7386L27.5155 44.4885C27.4495 44.106 27.6846 43.7703 28.0408 43.7387C28.212 43.7235 28.3887 43.7821 28.5321 43.9015L33.7889 49.2955L31.7477 42.0466C31.6432 41.6898 31.8243 41.3396 32.152 41.2644C32.1567 41.2634 32.1614 41.2624 32.1661 41.2614C32.4989 41.1897 32.8512 41.4248 32.9531 41.7865L35.6415 51.3293C35.7236 51.6219 35.6173 51.9174 35.3812 52.0534Z" fill="#7C7979"/>
<path d="M43.2401 32.4212L35.1573 37.0878C34.8783 37.2488 34.5061 37.1266 34.326 36.8147C34.146 36.5028 34.2262 36.1194 34.5052 35.9583L42.588 31.2917C42.867 31.1306 43.2392 31.2529 43.4192 31.5648C43.5993 31.8767 43.5191 32.2601 43.2401 32.4212Z" fill="white"/>
<path d="M45.1963 35.8093L37.1135 40.476C36.8345 40.637 36.4623 40.5148 36.2822 40.2029C36.1022 39.891 36.1824 39.5076 36.4614 39.3465L44.5442 34.6799C44.8232 34.5188 45.1953 34.6411 45.3754 34.9529C45.5555 35.2648 45.4753 35.6483 45.1963 35.8093Z" fill="white"/>
<path d="M47.1524 39.1976L39.0696 43.8643C38.7906 44.0253 38.4185 43.9031 38.2384 43.5912C38.0583 43.2793 38.1385 42.8959 38.4175 42.7348L46.5003 38.0682C46.7793 37.9071 47.1515 38.0294 47.3316 38.3413C47.5117 38.6532 47.4314 39.0366 47.1524 39.1976Z" fill="white"/>
<path d="M49.1086 42.5858L41.0258 47.2524C40.7468 47.4135 40.3746 47.2913 40.1946 46.9794C40.0145 46.6675 40.0947 46.2841 40.3737 46.123L48.4565 41.4564C48.7355 41.2953 49.1077 41.4176 49.2878 41.7294C49.4679 42.0414 49.3876 42.4248 49.1086 42.5858Z" fill="white"/>
<path d="M51.0648 45.974L42.982 50.6406C42.703 50.8017 42.3308 50.6795 42.1507 50.3676C41.9707 50.0557 42.0509 49.6723 42.3299 49.5112L50.4127 44.8446C50.6917 44.6835 51.0639 44.8057 51.2439 45.1176C51.424 45.4296 51.3438 45.8129 51.0648 45.974Z" fill="white"/>
<rect x="106.5" y="12.5" width="50" height="50" rx="10" transform="rotate(30 106.5 12.5)" fill="#22BB86"/>
<path d="M115.541 28.7849C114.648 28.2693 113.496 28.5781 112.98 29.4712L99.855 52.2044C99.3394 53.0975 99.6482 54.25 100.541 54.7657L116.779 64.1407C117.672 64.6563 118.825 64.3475 119.341 63.4544L124.497 54.5235L129.653 45.5926L126.908 35.3474L115.541 28.7849Z" fill="white"/>
<path d="M126.154 49.6431L131.026 52.4556L128.281 42.2104L125.468 47.0818C124.952 47.9749 125.261 49.1275 126.154 49.6431Z" fill="#A7A7A7"/>
<path d="M125.468 55.2681L123.409 47.5842L128.28 50.3967L125.468 55.2681Z" fill="white"/>
<path d="M117.625 55.2435C117.367 55.6901 116.791 55.8445 116.344 55.5867L98.4824 45.2742C98.0359 45.0163 97.8815 44.4401 98.1393 43.9935L102.827 35.8745C103.085 35.428 103.661 35.2736 104.107 35.5314L121.969 45.8439C122.416 46.1017 122.57 46.678 122.312 47.1245L117.625 55.2435Z" fill="#22BB86"/>
<path d="M104.876 40.2836C104.999 40.0693 105.303 39.9329 105.575 40.09L107.075 40.9558C107.919 41.4433 108.353 42.4471 107.727 43.5302C107.135 44.5564 106.045 44.6892 105.201 44.2017L104.117 43.576L103.622 44.4333C103.457 44.7191 103.182 44.7757 102.948 44.6407C102.733 44.5169 102.6 44.2246 102.765 43.9388L104.876 40.2836ZM105.519 41.1476L104.585 42.7649L105.669 43.3906C106.104 43.6419 106.67 43.4566 106.903 43.0539C107.165 42.6001 107.038 42.0246 106.603 41.7733L105.519 41.1476Z" fill="white"/>
<path d="M107.323 47.1668C107.109 47.043 106.942 46.7911 107.107 46.5061L109.236 42.8185C109.371 42.5855 109.702 42.5508 109.917 42.6745L111.403 43.5328C114.37 45.2456 111.711 49.7003 108.868 48.0588L107.323 47.1668ZM109.868 43.7032L108.189 46.6114L109.267 47.2334C111.02 48.2455 112.777 45.3822 110.946 44.3252L109.868 43.7032Z" fill="white"/>
<path d="M114.87 46.66L114.274 47.6919L115.929 48.6477C116.163 48.7827 116.262 49.1515 116.131 49.378C116.008 49.5924 115.672 49.6327 115.439 49.4977L113.783 48.5419L112.996 49.9051C112.865 50.1325 112.603 50.2137 112.375 50.0825C112.089 49.9175 112.016 49.6421 112.147 49.4148L114.276 45.7272C114.41 45.4941 114.684 45.4257 114.969 45.5902L117.248 46.906C117.534 47.071 117.604 47.3382 117.47 47.5712C117.35 47.7791 117.046 47.9154 116.76 47.7504L114.87 46.6592L114.87 46.66Z" fill="white"/>
<path d="M113.599 54.214L98.1729 45.3077L97.7041 46.1196L113.13 55.0259C113.577 55.2837 114.153 55.1293 114.411 54.6827L114.88 53.8708C114.622 54.3174 114.045 54.4718 113.599 54.214Z" fill="white"/>
</svg>
