<svg width="94" height="94" viewBox="0 0 94 94" fill="none" xmlns="http://www.w3.org/2000/svg">
<rect x="37.6506" y="12.5" width="50" height="50" rx="10" transform="rotate(30 37.6506 12.5)" fill="#22BB86"/>
<path d="M46.6919 28.7849C45.7988 28.2693 44.6462 28.5781 44.1306 29.4712L31.0056 52.2044C30.49 53.0975 30.7988 54.25 31.6919 54.7657L47.9299 64.1407C48.823 64.6563 49.9756 64.3475 50.4912 63.4544L55.6474 54.5235L60.8037 45.5926L58.0585 35.3474L46.6919 28.7849Z" fill="white"/>
<path d="M57.305 49.6431L62.1763 52.4556L59.4312 42.2104L56.6187 47.0818C56.103 47.9749 56.4119 49.1275 57.305 49.6431Z" fill="#A7A7A7"/>
<path d="M56.6186 55.2681L54.5597 47.5842L59.4311 50.3967L56.6186 55.2681Z" fill="white"/>
<path d="M48.7755 55.2435C48.5177 55.6901 47.9414 55.8445 47.4948 55.5867L29.6331 45.2742C29.1865 45.0163 29.0321 44.4401 29.2899 43.9935L33.9774 35.8745C34.2352 35.428 34.8115 35.2736 35.2581 35.5314L53.1198 45.8439C53.5664 46.1017 53.7208 46.678 53.463 47.1245L48.7755 55.2435Z" fill="#22BB86"/>
<path d="M36.0262 40.2836C36.1499 40.0693 36.4538 39.9329 36.7258 40.09L38.2253 40.9558C39.0697 41.4433 39.5034 42.4471 38.8781 43.5302C38.2856 44.5564 37.1957 44.6892 36.3513 44.2017L35.2674 43.576L34.7724 44.4333C34.6074 44.7191 34.3323 44.7757 34.0984 44.6407C33.8841 44.5169 33.7509 44.2246 33.9159 43.9388L36.0262 40.2836ZM36.6694 41.1476L35.7357 42.7649L36.8196 43.3906C37.2547 43.6419 37.8207 43.4566 38.0532 43.0539C38.3152 42.6001 38.1885 42.0246 37.7533 41.7733L36.6694 41.1476Z" fill="white"/>
<path d="M38.4737 47.1668C38.2594 47.043 38.093 46.7911 38.2576 46.5061L40.3866 42.8185C40.5212 42.5855 40.853 42.5508 41.0673 42.6745L42.5539 43.5328C45.5206 45.2456 42.862 49.7003 40.0188 48.0588L38.4737 47.1668ZM41.019 43.7032L39.3399 46.6114L40.4173 47.2334C42.1702 48.2455 43.9272 45.3822 42.0964 44.3252L41.019 43.7032Z" fill="white"/>
<path d="M46.0203 46.66L45.4246 47.6919L47.08 48.6477C47.3138 48.7827 47.4127 49.1515 47.2819 49.378C47.1581 49.5924 46.8231 49.6327 46.5892 49.4977L44.9338 48.5419L44.1467 49.9051C44.0155 50.1325 43.7531 50.2137 43.5258 50.0825C43.24 49.9175 43.1662 49.6421 43.2975 49.4148L45.4266 45.7272C45.5611 45.4941 45.8344 45.4257 46.1194 45.5902L48.3984 46.906C48.6842 47.071 48.7551 47.3382 48.6206 47.5712C48.5006 47.7791 48.1967 47.9154 47.9109 47.7504L46.0208 46.6592L46.0203 46.66Z" fill="white"/>
<path d="M44.7496 54.214L29.3235 45.3077L28.8547 46.1196L44.2808 55.0259C44.7274 55.2837 45.3036 55.1293 45.5615 54.6827L46.0302 53.8708C45.7724 54.3174 45.1961 54.4718 44.7496 54.214Z" fill="white"/>
</svg>
