<svg width="15" height="17" viewBox="0 0 15 17" fill="none" xmlns="http://www.w3.org/2000/svg">
<path d="M13.125 6.27124H12.5V4.27124C12.5 2.06524 10.2575 0.27124 7.5 0.27124C4.7425 0.27124 2.5 2.06524 2.5 4.27124V6.27124H1.875C0.841667 6.27124 0 6.94391 0 7.77124V14.7712C0 15.5986 0.841667 16.2712 1.875 16.2712H13.125C14.1583 16.2712 15 15.5986 15 14.7712V7.77124C15 6.94391 14.1583 6.27124 13.125 6.27124ZM4.16667 4.27124C4.16667 2.80057 5.66167 1.60457 7.5 1.60457C9.33833 1.60457 10.8333 2.80057 10.8333 4.27124V6.27124H4.16667V4.27124ZM8.33333 11.4192V12.9379C8.33333 13.3059 7.96083 13.6046 7.5 13.6046C7.03917 13.6046 6.66667 13.3059 6.66667 12.9379V11.4192C6.17083 11.1879 5.83333 10.7626 5.83333 10.2712C5.83333 9.53591 6.58083 8.93791 7.5 8.93791C8.41917 8.93791 9.16667 9.53591 9.16667 10.2712C9.16667 10.7626 8.82917 11.1879 8.33333 11.4192Z" fill="#22BB86"/>
</svg>
