<?xml version="1.0" encoding="utf-8"?>
<!-- Generator: Adobe Illustrator 24.3.0, SVG Export Plug-In . SVG Version: 6.00 Build 0)  -->
<svg version="1.1" id="Layer_1" xmlns="http://www.w3.org/2000/svg" xmlns:xlink="http://www.w3.org/1999/xlink" x="0px" y="0px"
	 viewBox="0 0 612 792" style="enable-background:new 0 0 612 792;" xml:space="preserve">
<style type="text/css">
	.st0{fill:#22BA85;}
	.st1{fill:#FEFEFE;}
</style>
<g>
	<path class="st0" d="M331.26,124.31c8.33,1.27,16.78,2,24.97,3.9c75.7,17.58,126.53,63.34,148.5,137.69
		c27.01,91.41-14.93,185.33-99.73,228.75c-34.94,17.89-72.26,24.99-111.12,18.84c-84.28-13.35-139.81-61.63-162.92-143.32
		c-19.17-67.75-2.51-129.32,44.13-182c30.12-34.02,68.51-53.97,113.28-61.6c4.32-0.74,8.86-0.25,12.96-2.26
		C311.3,124.31,321.28,124.31,331.26,124.31z"/>
	<path class="st0" d="M150.49,469.33c5.33,5.47,10.08,10.78,15.27,15.6c31.82,29.53,69.12,48.32,111.79,56.26
		c4.01,0.75,3.95,1.98,2.55,5.1c-11.66,26.03-23.23,52.1-34.76,78.18c-2.7,6.11-6.94,10.76-13.78,10.41
		c-6.87-0.35-12.39-3.68-15.35-10.78c-7.79-18.67-16.04-37.14-23.91-55.77c-1.42-3.37-2.69-4.37-6.48-3.03
		c-18.91,6.68-37.96,12.96-56.91,19.52c-6.81,2.36-13.13,2.44-18.36-3.17c-5.21-5.6-4.8-11.86-1.84-18.49
		c13.62-30.42,27.12-60.89,40.67-91.34C149.64,471.26,149.89,470.7,150.49,469.33z"/>
	<path class="st0" d="M486.49,470.11c14.13,31.83,28.3,63.6,42.3,95.45c2.55,5.79,1.62,11.47-2.82,16.17
		c-4.44,4.7-9.96,5.78-15.99,3.76c-19.8-6.65-39.59-13.31-59.31-20.18c-3.35-1.17-4.78-0.76-6.22,2.67
		c-7.91,18.8-16.2,37.43-24.13,56.22c-2.95,6.99-8.37,10.5-15.37,10.72c-6.85,0.22-11.04-4.39-13.74-10.5
		c-11.52-26.09-23.09-52.15-34.76-78.17c-1.46-3.25-1.26-4.31,2.63-5.04c48.19-9.05,89.04-31.63,122.79-67.14
		C483.21,472.66,484.18,470.8,486.49,470.11z"/>
	<path class="st1" d="M318.47,215.9c6.43,0.05,11.01,2.96,13.86,8.77c6.79,13.86,13.71,27.65,20.45,41.53
		c1.18,2.43,2.48,3.77,5.39,4.16c15.13,2.03,30.21,4.46,45.34,6.53c6.83,0.94,12.11,3.79,14.32,10.57c2.2,6.77-0.34,12.2-5.33,16.98
		c-10.93,10.46-21.62,21.17-32.52,31.66c-2.11,2.03-2.85,3.84-2.28,6.92c2.9,15.5,5.48,31.05,8.09,46.6
		c1.03,6.12-1.01,11.25-5.97,14.9c-4.98,3.67-10.45,3.94-15.97,1.05c-13.81-7.25-27.65-14.45-41.38-21.86
		c-2.92-1.58-5.21-1.66-8.19-0.04c-12.98,7.05-26.16,13.73-39.15,20.75c-6.16,3.33-12.21,4.57-18.22,0.17
		c-5.9-4.32-7.05-10.2-5.71-17.26c2.75-14.51,4.8-29.15,7.57-43.66c0.7-3.66-0.19-5.77-2.72-8.19
		c-10.81-10.34-21.36-20.96-32.17-31.3c-5.04-4.82-7.36-10.33-5.02-17.03c2.34-6.72,7.71-9.41,14.54-10.29
		c14.65-1.9,29.25-4.2,43.89-6.17c3.47-0.47,5.42-1.99,6.95-5.21c6.49-13.64,13.25-27.14,19.97-40.67
		C307.39,218.46,311.64,215.88,318.47,215.9z"/>
	<path class="st0" d="M318.29,263.99c4.28,8.6,8.31,16.03,11.71,23.74c3.2,7.25,8.63,10.41,16.2,11.22
		c8.05,0.86,16.04,2.23,25.26,3.55c-2.4,2.38-4.2,4.16-6,5.93c-4.63,4.54-9.16,9.17-13.91,13.57c-4.9,4.52-6.17,9.95-5.03,16.29
		c1.56,8.62,3,17.26,4.64,26.8c-7.95-4.17-15.36-7.72-22.42-11.85c-6.99-4.09-13.5-4.36-20.58-0.16
		c-7.1,4.21-14.58,7.79-22.71,12.07c1.54-9.18,2.73-17.62,4.42-25.96c1.45-7.17-0.11-12.98-5.6-17.97
		c-5.53-5.02-10.74-10.4-16.04-15.66c-0.75-0.74-2.22-1.31-1.65-2.71c0.44-1.06,1.72-0.76,2.67-0.9c7.22-1.04,14.43-2.22,21.68-3.04
		c7.41-0.84,12.57-4.22,15.67-11.23C310,279.97,314.02,272.55,318.29,263.99z"/>
</g>
</svg>
