<?xml version="1.0" encoding="utf-8"?>
<!-- Generator: Adobe Illustrator 24.3.0, SVG Export Plug-In . SVG Version: 6.00 Build 0)  -->
<svg version="1.1" id="Layer_1" xmlns="http://www.w3.org/2000/svg" xmlns:xlink="http://www.w3.org/1999/xlink" x="0px" y="0px"
	 viewBox="0 0 612 792" style="enable-background:new 0 0 612 792;" xml:space="preserve">
<style type="text/css">
	.st0{fill:#22BA85;}
</style>
<g>
	<path class="st0" d="M574.48,635c-4.35,12.56-13.24,17.13-26.37,17.1c-125-0.24-249.99-0.14-374.99-0.15
		c-15.9,0-24.52-8.39-24.4-24.18c0.12-16.78-0.8-33.58,0.6-50.33c4.04-48.24,26.29-86.06,66.14-113.28
		c24.03-16.42,50.93-24.74,80.12-24.84c44.38-0.15,88.77-0.49,133.14,0.09c72.13,0.94,133.23,54.87,144.04,126.19
		c0.43,2.84-0.15,5.96,1.73,8.53C574.48,594.43,574.48,614.72,574.48,635z"/>
	<path class="st0" d="M373.94,141.18c7.44,2.09,15.18,2.7,22.65,4.83c51.31,14.61,88.33,59.87,92.24,113.06
		c4.97,67.47-41.9,126.03-109.07,136.27c-66.79,10.18-131.97-36.59-143.61-103.06c-12.23-69.81,31.41-134.29,100.7-148.7
		c4.68-0.97,9.43-1.61,14.14-2.4C358.64,141.18,366.29,141.18,373.94,141.18z"/>
	<path class="st0" d="M127.5,419.76c0-6.48-0.19-12.97,0.08-19.44c0.13-3.21-1.01-3.85-3.97-3.81c-12.46,0.15-24.93,0.09-37.4,0.06
		c-12.82-0.03-22.41-8.96-22.56-20.95c-0.16-12.28,9.3-21.54,22.41-21.67c12.47-0.13,24.93-0.15,37.4,0.04
		c3.35,0.05,4.15-1.04,4.11-4.22c-0.16-12.46-0.1-24.93-0.06-37.39c0.05-12.68,9.27-22.28,21.3-22.26
		c11.76,0.02,21.08,9.39,21.3,21.83c0.21,12.46,0.21,24.93-0.03,37.39c-0.08,3.82,1.12,4.72,4.77,4.66
		c12.46-0.22,24.93-0.25,37.4-0.02c11.85,0.21,20.64,8.48,21.68,19.91c0.94,10.31-6.61,20.29-17.39,22.25
		c-4.19,0.76-8.61,0.42-12.92,0.44c-9.64,0.05-19.29,0.22-28.92-0.08c-3.88-0.12-4.67,1.14-4.61,4.76
		c0.22,12.46,0.2,24.93,0.03,37.39c-0.14,9.69-5.58,17.4-13.98,20.47c-8.23,3.01-17.32,0.77-23.19-5.81
		c-3.56-3.99-5.41-8.7-5.44-14.08C127.48,432.73,127.5,426.25,127.5,419.76z"/>
</g>
</svg>
