<?xml version="1.0" encoding="utf-8"?>
<!-- Generator: Adobe Illustrator 24.3.0, SVG Export Plug-In . SVG Version: 6.00 Build 0)  -->
<svg version="1.1" id="Layer_1" xmlns="http://www.w3.org/2000/svg" xmlns:xlink="http://www.w3.org/1999/xlink" x="0px" y="0px"
	 viewBox="0 0 612 792" style="enable-background:new 0 0 612 792;" xml:space="preserve">
<style type="text/css">
	.st0{fill:#22BA86;}
	.st1{fill:#FEFEFE;}
	.st2{fill:#FCFDFD;}
</style>
<g>
	<path class="st0" d="M562,552.99c0,6.67,0,13.34,0,20c-0.86,2.77-1.81,5.53-2.57,8.33c-9.35,34.23-38.06,55.78-74.82,55.83
		c-67.11,0.09-134.23,0.03-201.34,0.02c-53.12-0.01-106.25,0.26-159.37-0.16c-35.53-0.28-64.25-24.32-72.13-59.09
		c-0.38-1.69-1.17-3.3-1.76-4.94c0-7.33,0-14.67,0-22c0.62-1.63,1.25-3.26,1.86-4.89c2.45-6.52,4.15-13.44,7.44-19.5
		c60.06-110.75,120.24-221.44,180.57-332.03c14.1-25.85,36.32-39.52,65.81-39.62c29.69-0.1,52.15,13.47,66.38,39.52
		c48.99,89.68,98.1,179.29,146.36,269.37C534.03,492.95,554.03,520.08,562,552.99z M335.98,382.27c0.01,0,0.01,0,0.02,0
		c0-24.84,0.08-49.67-0.03-74.51c-0.07-17.17-13.13-30.48-29.77-30.63c-16.74-0.15-30.16,13.37-30.18,30.72
		c-0.07,49.5-0.05,99.01,0.04,148.51c0.01,3.44,0.54,7.02,1.59,10.29c4.49,13.92,18.28,22.27,32.87,20.22
		c14.12-1.98,25.28-14.45,25.4-29.1C336.13,432.61,335.98,407.44,335.98,382.27z M305.89,577.12c16.56,0.04,29.99-13.2,30.11-29.67
		c0.12-16.6-13.6-30.38-30.14-30.28c-16.39,0.1-29.87,13.68-29.85,30.07C276.03,563.74,289.37,577.08,305.89,577.12z"/>
	<path class="st1" d="M335.98,382.27c0,25.17,0.14,50.34-0.06,75.5c-0.12,14.65-11.27,27.12-25.4,29.1
		c-14.59,2.05-28.38-6.31-32.87-20.22c-1.05-3.27-1.59-6.85-1.59-10.29c-0.1-49.5-0.11-99.01-0.04-148.51
		c0.02-17.35,13.44-30.87,30.18-30.72c16.63,0.15,29.7,13.46,29.77,30.63c0.1,24.83,0.03,49.67,0.03,74.51
		C335.99,382.27,335.99,382.27,335.98,382.27z"/>
	<path class="st2" d="M305.89,577.12c-16.52-0.04-29.86-13.38-29.88-29.89c-0.02-16.39,13.46-29.96,29.85-30.07
		c16.54-0.1,30.26,13.68,30.14,30.28C335.88,563.92,322.44,577.16,305.89,577.12z"/>
</g>
</svg>
